# xmcd
#
# Track frame offsets:
#	150
#	16649
#	34346
#	51694
#	68721
#	86763
#	103320
#	119759
#	139292
#	157472
#	173843
#	184511
#	201578
#	217398
#	232927
#	250092
#	272921
#	290403
#
# Disc length: 4099
#
# Revision: 3
# Processed by: cddbd v1.5.1PL0 Copyright (c) Steve Scherf et al.
# Submitted via: audiograbber 1.80
# Normalized: r2:TDELIM( - )
#
DISCID=25100112
DTITLE=Power Of A Woman - Various Artists CD 2
DYEAR=1900
DGENRE=
TTITLE0=K D Lang - Constant Craving
TTITLE1=Donna Lewis - I Love You Always Forever
TTITLE2=Scarlet - Independent Love Song
TTITLE3=Paula Cole - Where Have All The Cowboys Gone?
TTITLE4=Pretenders - I´ll Stand By You
TTITLE5=Suzanne Vega - Marlene On The Wall
TTITLE6=Edie Brickell and New Bohemians - What I Am
TTITLE7=Garbage - Stupid Girl
TTITLE8=Eddi Reader - Patience Of Angels
TTITLE9=Tina Turner - Let´s Stay Together
TTITLE10=Aretha Franklin - Respect
TTITLE11=Dina Carroll - Only Human
TTITLE12=Diana Ross - Ain´t No Montain High Enough
TTITLE13=Chaka Khan - I´m Every Woman
TTITLE14=Erykah Badu - On and On
TTITLE15=Kylie Minoque - Confide In Me
TTITLE16=Deni Hines - Delicious Feat. Don-E
TTITLE17=Jewel - You Were Meant For Me
EXTD=
EXTT0=
EXTT1=
EXTT2=
EXTT3=
EXTT4=
EXTT5=
EXTT6=
EXTT7=
EXTT8=
EXTT9=
EXTT10=
EXTT11=
EXTT12=
EXTT13=
EXTT14=
EXTT15=
EXTT16=
EXTT17=
PLAYORDER=
